<svg width="179" height="36" viewBox="0 0 179 36" fill="none" xmlns="http://www.w3.org/2000/svg">
<path d="M0 1C0 0.447716 0.447715 0 1 0H178C178.552 0 179 0.447715 179 1V35C179 35.5523 178.552 36 178 36H0.999995C0.44771 36 0 35.5523 0 35V1Z" fill="#F9D4CF"/>
<path fill-rule="evenodd" clip-rule="evenodd" d="M14.7499 10.9537V25.0463L24.816 18L14.7499 10.9537ZM13.5833 9.87814C13.5833 9.38732 14.1357 9.09969 14.5378 9.38114L26.1405 17.503C26.4855 17.7445 26.4855 18.2555 26.1405 18.497L14.5378 26.6188C14.1358 26.9003 13.5833 26.6127 13.5833 26.1218V9.87814Z" fill="#AF726B"/>
<path d="M45.696 22H44.2983L47.4389 13.2727H48.9602L52.1009 22H50.7031L48.2358 14.858H48.1676L45.696 22ZM45.9304 18.5824H50.4645V19.6903H45.9304V18.5824ZM54.2589 22V15.4545H55.4904V16.4943H55.5586C55.6779 16.142 55.8881 15.8651 56.1893 15.6634C56.4933 15.4588 56.837 15.3565 57.2205 15.3565C57.3001 15.3565 57.3938 15.3594 57.5018 15.3651C57.6126 15.3707 57.6992 15.3778 57.7617 15.3864V16.6051C57.7106 16.5909 57.6197 16.5753 57.489 16.5582C57.3583 16.5384 57.2276 16.5284 57.0969 16.5284C56.7958 16.5284 56.5273 16.5923 56.2915 16.7202C56.0586 16.8452 55.8739 17.0199 55.7376 17.2443C55.6012 17.4659 55.533 17.7187 55.533 18.0028V22H54.2589ZM63.3065 15.4545V16.4773H59.7312V15.4545H63.3065ZM60.69 13.8864H61.9641V20.0781C61.9641 20.3253 62.0011 20.5114 62.0749 20.6364C62.1488 20.7585 62.244 20.8423 62.3604 20.8878C62.4798 20.9304 62.609 20.9517 62.7482 20.9517C62.8505 20.9517 62.94 20.9446 63.0167 20.9304C63.0934 20.9162 63.1531 20.9048 63.1957 20.8963L63.4258 21.9489C63.3519 21.9773 63.2468 22.0057 63.1104 22.0341C62.9741 22.0653 62.8036 22.0824 62.5991 22.0852C62.2638 22.0909 61.9513 22.0312 61.6616 21.9062C61.3718 21.7812 61.1374 21.5881 60.9585 21.3267C60.7795 21.0653 60.69 20.7372 60.69 20.3423V13.8864ZM65.7159 22V15.4545H66.9901V22H65.7159ZM66.3594 14.4446C66.1378 14.4446 65.9474 14.3707 65.7884 14.223C65.6321 14.0724 65.554 13.8935 65.554 13.6861C65.554 13.4759 65.6321 13.2969 65.7884 13.1491C65.9474 12.9986 66.1378 12.9233 66.3594 12.9233C66.581 12.9233 66.7699 12.9986 66.9261 13.1491C67.0852 13.2969 67.1648 13.4759 67.1648 13.6861C67.1648 13.8935 67.0852 14.0724 66.9261 14.223C66.7699 14.3707 66.581 14.4446 66.3594 14.4446ZM70.8761 19.7798L70.8675 18.2244H71.0891L73.6971 15.4545H75.2227L72.2482 18.608H72.0479L70.8761 19.7798ZM69.7042 22V13.2727H70.9783V22H69.7042ZM73.8377 22L71.494 18.8892L72.3718 17.9986L75.4016 22H73.8377ZM79.9354 22.1321C79.2905 22.1321 78.7351 21.9943 78.2692 21.7188C77.8061 21.4403 77.4482 21.0497 77.1953 20.5469C76.9453 20.0412 76.8203 19.4489 76.8203 18.7699C76.8203 18.0994 76.9453 17.5085 77.1953 16.9972C77.4482 16.4858 77.8004 16.0866 78.2521 15.7997C78.7067 15.5128 79.2379 15.3693 79.8459 15.3693C80.2152 15.3693 80.5732 15.4304 80.9197 15.5526C81.2663 15.6747 81.5774 15.8665 81.853 16.1278C82.1286 16.3892 82.3459 16.7287 82.505 17.1463C82.6641 17.5611 82.7436 18.0653 82.7436 18.6591V19.1108H77.5405V18.1562H81.495C81.495 17.821 81.4268 17.5241 81.2905 17.2656C81.1541 17.0043 80.9624 16.7983 80.7152 16.6477C80.4709 16.4972 80.1839 16.4219 79.8544 16.4219C79.4964 16.4219 79.1839 16.5099 78.9169 16.6861C78.6527 16.8594 78.4482 17.0866 78.3033 17.3679C78.1612 17.6463 78.0902 17.9489 78.0902 18.2756V19.0213C78.0902 19.4588 78.1669 19.831 78.3203 20.1378C78.4766 20.4446 78.6939 20.679 78.9723 20.8409C79.2507 21 79.576 21.0795 79.9482 21.0795C80.1896 21.0795 80.4098 21.0455 80.6087 20.9773C80.8075 20.9062 80.9794 20.8011 81.1243 20.6619C81.2692 20.5227 81.38 20.3509 81.4567 20.1463L82.6626 20.3636C82.5661 20.7187 82.3928 21.0298 82.1428 21.2969C81.8956 21.5611 81.5845 21.767 81.2095 21.9148C80.8374 22.0597 80.4126 22.1321 79.9354 22.1321ZM86.4315 13.2727V22H85.1573V13.2727H86.4315ZM93.4237 22V13.2727H94.6978V16.5156H94.7745C94.8484 16.3793 94.9549 16.2216 95.0941 16.0426C95.2333 15.8636 95.4265 15.7074 95.6737 15.5739C95.9208 15.4375 96.2475 15.3693 96.6538 15.3693C97.1822 15.3693 97.6538 15.5028 98.0685 15.7699C98.4833 16.0369 98.8086 16.4219 99.0444 16.9247C99.283 17.4276 99.4023 18.0327 99.4023 18.7401C99.4023 19.4474 99.2844 20.054 99.0487 20.5597C98.8129 21.0625 98.489 21.4503 98.0771 21.723C97.6651 21.9929 97.195 22.1278 96.6665 22.1278C96.2688 22.1278 95.9435 22.0611 95.6907 21.9276C95.4407 21.794 95.2447 21.6378 95.1026 21.4588C94.9606 21.2798 94.8512 21.1207 94.7745 20.9815H94.668V22H93.4237ZM94.6722 18.7273C94.6722 19.1875 94.739 19.5909 94.8725 19.9375C95.006 20.2841 95.1992 20.5554 95.4521 20.7514C95.7049 20.9446 96.0146 21.0412 96.381 21.0412C96.7617 21.0412 97.0799 20.9403 97.3356 20.7386C97.5913 20.5341 97.7844 20.2571 97.9151 19.9077C98.0487 19.5582 98.1154 19.1648 98.1154 18.7273C98.1154 18.2955 98.0501 17.9077 97.9194 17.5639C97.7915 17.2202 97.5984 16.9489 97.3398 16.75C97.0842 16.5511 96.7646 16.4517 96.381 16.4517C96.0117 16.4517 95.6992 16.5469 95.4435 16.7372C95.1907 16.9276 94.9989 17.1932 94.8683 17.5341C94.7376 17.875 94.6722 18.2727 94.6722 18.7273ZM104.654 22.1321C104.009 22.1321 103.454 21.9943 102.988 21.7188C102.525 21.4403 102.167 21.0497 101.914 20.5469C101.664 20.0412 101.539 19.4489 101.539 18.7699C101.539 18.0994 101.664 17.5085 101.914 16.9972C102.167 16.4858 102.519 16.0866 102.971 15.7997C103.425 15.5128 103.957 15.3693 104.565 15.3693C104.934 15.3693 105.292 15.4304 105.638 15.5526C105.985 15.6747 106.296 15.8665 106.572 16.1278C106.847 16.3892 107.065 16.7287 107.224 17.1463C107.383 17.5611 107.462 18.0653 107.462 18.6591V19.1108H102.259V18.1562H106.214C106.214 17.821 106.146 17.5241 106.009 17.2656C105.873 17.0043 105.681 16.7983 105.434 16.6477C105.19 16.4972 104.903 16.4219 104.573 16.4219C104.215 16.4219 103.903 16.5099 103.636 16.6861C103.371 16.8594 103.167 17.0866 103.022 17.3679C102.88 17.6463 102.809 17.9489 102.809 18.2756V19.0213C102.809 19.4588 102.886 19.831 103.039 20.1378C103.195 20.4446 103.413 20.679 103.691 20.8409C103.969 21 104.295 21.0795 104.667 21.0795C104.908 21.0795 105.129 21.0455 105.327 20.9773C105.526 20.9062 105.698 20.8011 105.843 20.6619C105.988 20.5227 106.099 20.3509 106.175 20.1463L107.381 20.3636C107.285 20.7187 107.112 21.0298 106.862 21.2969C106.614 21.5611 106.303 21.767 105.928 21.9148C105.556 22.0597 105.131 22.1321 104.654 22.1321ZM111.15 13.2727V22H109.876V13.2727H111.15ZM118.011 19.2855V15.4545H119.289V22H118.036V20.8665H117.968C117.817 21.2159 117.576 21.5071 117.244 21.7401C116.914 21.9702 116.504 22.0852 116.012 22.0852C115.592 22.0852 115.219 21.9929 114.896 21.8082C114.575 21.6207 114.322 21.3438 114.137 20.9773C113.955 20.6108 113.864 20.1577 113.864 19.6179V15.4545H115.138V19.4645C115.138 19.9105 115.262 20.2656 115.509 20.5298C115.756 20.794 116.077 20.9261 116.472 20.9261C116.711 20.9261 116.948 20.8665 117.184 20.7472C117.423 20.6278 117.62 20.4474 117.776 20.206C117.935 19.9645 118.013 19.6577 118.011 19.2855ZM122.001 22V15.4545H123.275V22H122.001ZM122.645 14.4446C122.423 14.4446 122.233 14.3707 122.074 14.223C121.917 14.0724 121.839 13.8935 121.839 13.6861C121.839 13.4759 121.917 13.2969 122.074 13.1491C122.233 12.9986 122.423 12.9233 122.645 12.9233C122.866 12.9233 123.055 12.9986 123.211 13.1491C123.37 13.2969 123.45 13.4759 123.45 13.6861C123.45 13.8935 123.37 14.0724 123.211 14.223C123.055 14.3707 122.866 14.4446 122.645 14.4446ZM130.894 17.0526L129.739 17.2571C129.691 17.1094 129.614 16.9687 129.509 16.8352C129.407 16.7017 129.268 16.5923 129.092 16.5071C128.915 16.4219 128.695 16.3793 128.431 16.3793C128.07 16.3793 127.769 16.4602 127.528 16.6222C127.286 16.7812 127.165 16.9872 127.165 17.2401C127.165 17.4588 127.246 17.6349 127.408 17.7685C127.57 17.902 127.832 18.0114 128.192 18.0966L129.232 18.3352C129.835 18.4744 130.283 18.6889 130.579 18.9787C130.874 19.2685 131.022 19.6449 131.022 20.108C131.022 20.5 130.908 20.8494 130.681 21.1562C130.457 21.4602 130.143 21.6989 129.739 21.8722C129.339 22.0455 128.874 22.1321 128.346 22.1321C127.613 22.1321 127.015 21.9759 126.552 21.6634C126.089 21.348 125.805 20.9006 125.7 20.321L126.931 20.1335C127.008 20.4545 127.165 20.6974 127.404 20.8622C127.643 21.0241 127.954 21.1051 128.337 21.1051C128.755 21.1051 129.089 21.0185 129.339 20.8452C129.589 20.669 129.714 20.4545 129.714 20.2017C129.714 19.9972 129.637 19.8253 129.484 19.6861C129.333 19.5469 129.102 19.4418 128.789 19.3707L127.681 19.1278C127.07 18.9886 126.619 18.767 126.326 18.4631C126.036 18.1591 125.891 17.7741 125.891 17.3082C125.891 16.9219 125.999 16.5838 126.215 16.294C126.431 16.0043 126.729 15.7784 127.11 15.6165C127.491 15.4517 127.927 15.3693 128.418 15.3693C129.126 15.3693 129.683 15.5227 130.089 15.8295C130.495 16.1335 130.763 16.5412 130.894 17.0526ZM136.478 15.4545V16.4773H132.903V15.4545H136.478ZM133.862 13.8864H135.136V20.0781C135.136 20.3253 135.173 20.5114 135.247 20.6364C135.321 20.7585 135.416 20.8423 135.532 20.8878C135.652 20.9304 135.781 20.9517 135.92 20.9517C136.022 20.9517 136.112 20.9446 136.189 20.9304C136.265 20.9162 136.325 20.9048 136.368 20.8963L136.598 21.9489C136.524 21.9773 136.419 22.0057 136.282 22.0341C136.146 22.0653 135.975 22.0824 135.771 22.0852C135.436 22.0909 135.123 22.0312 134.833 21.9062C134.544 21.7812 134.309 21.5881 134.13 21.3267C133.951 21.0653 133.862 20.7372 133.862 20.3423V13.8864ZM141.638 22.1321C140.994 22.1321 140.438 21.9943 139.972 21.7188C139.509 21.4403 139.151 21.0497 138.898 20.5469C138.648 20.0412 138.523 19.4489 138.523 18.7699C138.523 18.0994 138.648 17.5085 138.898 16.9972C139.151 16.4858 139.504 16.0866 139.955 15.7997C140.41 15.5128 140.941 15.3693 141.549 15.3693C141.918 15.3693 142.276 15.4304 142.623 15.5526C142.969 15.6747 143.281 15.8665 143.556 16.1278C143.832 16.3892 144.049 16.7287 144.208 17.1463C144.367 17.5611 144.447 18.0653 144.447 18.6591V19.1108H139.244V18.1562H143.198C143.198 17.821 143.13 17.5241 142.994 17.2656C142.857 17.0043 142.665 16.7983 142.418 16.6477C142.174 16.4972 141.887 16.4219 141.558 16.4219C141.2 16.4219 140.887 16.5099 140.62 16.6861C140.356 16.8594 140.151 17.0866 140.006 17.3679C139.864 17.6463 139.793 17.9489 139.793 18.2756V19.0213C139.793 19.4588 139.87 19.831 140.023 20.1378C140.18 20.4446 140.397 20.679 140.675 20.8409C140.954 21 141.279 21.0795 141.651 21.0795C141.893 21.0795 142.113 21.0455 142.312 20.9773C142.511 20.9062 142.683 20.8011 142.827 20.6619C142.972 20.5227 143.083 20.3509 143.16 20.1463L144.366 20.3636C144.269 20.7187 144.096 21.0298 143.846 21.2969C143.599 21.5611 143.288 21.767 142.913 21.9148C142.54 22.0597 142.116 22.1321 141.638 22.1321ZM146.86 22V15.4545H148.092V16.4943H148.16C148.279 16.142 148.49 15.8651 148.791 15.6634C149.095 15.4588 149.439 15.3565 149.822 15.3565C149.902 15.3565 149.995 15.3594 150.103 15.3651C150.214 15.3707 150.301 15.3778 150.363 15.3864V16.6051C150.312 16.5909 150.221 16.5753 150.091 16.5582C149.96 16.5384 149.829 16.5284 149.699 16.5284C149.397 16.5284 149.129 16.5923 148.893 16.7202C148.66 16.8452 148.475 17.0199 148.339 17.2443C148.203 17.4659 148.135 17.7187 148.135 18.0028V22H146.86ZM155.053 22.1321C154.408 22.1321 153.852 21.9943 153.386 21.7188C152.923 21.4403 152.565 21.0497 152.312 20.5469C152.062 20.0412 151.938 19.4489 151.938 18.7699C151.938 18.0994 152.062 17.5085 152.312 16.9972C152.565 16.4858 152.918 16.0866 153.369 15.7997C153.824 15.5128 154.355 15.3693 154.963 15.3693C155.332 15.3693 155.69 15.4304 156.037 15.5526C156.384 15.6747 156.695 15.8665 156.97 16.1278C157.246 16.3892 157.463 16.7287 157.622 17.1463C157.781 17.5611 157.861 18.0653 157.861 18.6591V19.1108H152.658V18.1562H156.612C156.612 17.821 156.544 17.5241 156.408 17.2656C156.271 17.0043 156.08 16.7983 155.832 16.6477C155.588 16.4972 155.301 16.4219 154.972 16.4219C154.614 16.4219 154.301 16.5099 154.034 16.6861C153.77 16.8594 153.565 17.0866 153.42 17.3679C153.278 17.6463 153.207 17.9489 153.207 18.2756V19.0213C153.207 19.4588 153.284 19.831 153.438 20.1378C153.594 20.4446 153.811 20.679 154.089 20.8409C154.368 21 154.693 21.0795 155.065 21.0795C155.307 21.0795 155.527 21.0455 155.726 20.9773C155.925 20.9062 156.097 20.8011 156.241 20.6619C156.386 20.5227 156.497 20.3509 156.574 20.1463L157.78 20.3636C157.683 20.7187 157.51 21.0298 157.26 21.2969C157.013 21.5611 156.702 21.767 156.327 21.9148C155.955 22.0597 155.53 22.1321 155.053 22.1321ZM161.549 18.1136V22H160.275V15.4545H161.498V16.5199H161.578C161.729 16.1733 161.965 15.8949 162.286 15.6847C162.61 15.4744 163.017 15.3693 163.509 15.3693C163.955 15.3693 164.346 15.4631 164.681 15.6506C165.016 15.8352 165.276 16.1108 165.461 16.4773C165.645 16.8437 165.738 17.2969 165.738 17.8366V22H164.463V17.9901C164.463 17.5156 164.34 17.1449 164.093 16.8778C163.846 16.608 163.506 16.473 163.074 16.473C162.779 16.473 162.516 16.5369 162.286 16.6648C162.059 16.7926 161.878 16.9801 161.745 17.2273C161.614 17.4716 161.549 17.767 161.549 18.1136Z" fill="#AF726B"/>
</svg>
