<svg width="28" height="28" viewBox="0 0 28 28" fill="none" xmlns="http://www.w3.org/2000/svg">
<path fill-rule="evenodd" clip-rule="evenodd" d="M19.3912 16.0137L20.6326 19.0283C20.7656 19.3608 20.8542 19.649 20.8542 19.915C20.8542 20.6022 20.3444 20.8238 18.8592 20.8682V21.4667H24.5339V20.8682C23.9354 20.7795 23.4699 20.6465 23.2261 20.048L17.3297 5.70618H15.1131L15.7337 7.16918L11.3701 18.192L8.62407 11.5127H7.22407L7.61607 12.4367L4.39607 20.5707C4.25607 20.9487 3.96207 21.0327 3.57007 21.0887V21.4667H6.32807V21.0887C5.37607 21.0607 5.05407 20.9067 5.05407 20.4727C5.05407 20.3187 5.11007 20.1227 5.19407 19.9127L5.93607 18.0227H9.92607L10.6965 19.8937L10.6354 20.048C10.4137 20.6465 9.94822 20.7795 9.32755 20.8682V21.4667H13.6944V20.8682C13.1528 20.8522 12.74 20.8106 12.4333 20.7318C12.4014 20.685 12.3729 20.6317 12.3481 20.5707L11.8069 19.2544C11.8342 19.1736 11.8651 19.0906 11.8989 19.0062L13.0737 16.0137H19.3912ZM13.3397 15.3043L16.1771 8.10018L19.1031 15.3043H13.3397ZM6.10407 17.5747L7.89607 13.0247L9.74407 17.5747H6.10407Z" fill="#7B7B7A"/>
</svg>
