<svg width="28" height="28" viewBox="0 0 28 28" fill="none" xmlns="http://www.w3.org/2000/svg">
<path fill-rule="evenodd" clip-rule="evenodd" d="M4.70792 5.89257C4.48423 5.88628 4.28261 6.00479 4.17575 6.18914C4.06312 6.38344 4.06092 6.64912 4.22341 6.85505C4.36555 7.0352 5.5184 8.498 6.73367 10.091C7.96424 11.704 9.21305 13.3917 9.5826 14.0517C9.74789 14.3468 9.99408 14.9961 10.281 15.8692C10.5617 16.7232 10.8654 17.7401 11.1496 18.7325C11.7177 20.7163 12.2027 22.5834 12.2623 22.8137C12.3294 23.0729 12.549 23.232 12.7755 23.2557C12.9895 23.2781 13.2064 23.1828 13.3325 22.9944L23.7945 7.35949C24.06 6.96281 23.7845 6.4291 23.3074 6.41568L4.70792 5.89257ZM7.66123 9.38332C7.00379 8.52156 6.36478 7.69804 5.89256 7.09302L20.8896 7.51481L10.3047 13.003C9.72578 12.1209 8.65677 10.6883 7.66123 9.38332ZM10.8579 14.0303C11.0255 14.4349 11.2068 14.9493 11.3894 15.5049C11.6768 16.3795 11.9852 17.4127 12.2711 18.4113C12.5787 19.4853 12.8619 20.5247 13.0675 21.2926L21.6826 8.41784L10.8579 14.0303Z" fill="#7B7B7A"/>
</svg>
