<svg width="148" height="41" viewBox="0 0 148 41" fill="none" xmlns="http://www.w3.org/2000/svg">
<path d="M0.5 1.1001C0.5 0.547812 0.947715 0.100098 1.5 0.100098H147C147.552 0.100098 148 0.547813 148 1.1001V39.1001C148 39.6524 147.552 40.1001 147 40.1001H1.5C0.947717 40.1001 0.5 39.6524 0.5 39.1001V1.1001Z" fill="#F9D4CF"/>
<path d="M67.5117 18.9602L67.0732 19.9112H61.0025L61.3487 18.9602H67.5117ZM66.6854 20.8345L66.2376 21.7947H61.0025L61.3487 20.8345H66.6854ZM68.6381 16.4534L68.0934 17.6214C67.921 17.4737 67.7333 17.3398 67.5302 17.2198C67.3271 17.0997 67.1085 17.0043 66.8746 16.9335C66.6407 16.8597 66.3899 16.8228 66.1222 16.8228C65.6297 16.8228 65.1912 16.9551 64.8065 17.2198C64.4218 17.4844 64.1186 17.8815 63.897 18.4108C63.6785 18.9371 63.5692 19.5926 63.5692 20.3774C63.5692 21.1622 63.6785 21.8178 63.897 22.3441C64.1186 22.8703 64.4218 23.2658 64.8065 23.5305C65.1912 23.7921 65.6297 23.9229 66.1222 23.9229C66.393 23.9229 66.6454 23.8875 66.8793 23.8167C67.1162 23.7459 67.3317 23.6536 67.5256 23.5397C67.7225 23.4228 67.8995 23.2997 68.0565 23.1704L68.6151 24.3338C68.2888 24.6292 67.9103 24.8523 67.4794 25.0032C67.0485 25.154 66.5961 25.2294 66.1222 25.2294C65.3497 25.2294 64.6649 25.0339 64.0678 24.6431C63.4738 24.2522 63.0076 23.6951 62.669 22.9719C62.3305 22.2456 62.1612 21.3808 62.1612 20.3774C62.1612 19.371 62.3305 18.5047 62.669 17.7784C63.0076 17.052 63.4738 16.4934 64.0678 16.1026C64.6649 15.7117 65.3497 15.5163 66.1222 15.5163C66.6146 15.5163 67.0732 15.5978 67.4979 15.761C67.9226 15.921 68.3027 16.1518 68.6381 16.4534ZM74.4208 25.2294C73.8422 25.2294 73.3221 25.1186 72.8604 24.897C72.4019 24.6723 72.0356 24.3645 71.7617 23.9737C71.4878 23.5828 71.3416 23.1366 71.3232 22.6349H72.7081C72.742 23.0411 72.922 23.3751 73.2482 23.6367C73.5745 23.8983 73.9653 24.0291 74.4208 24.0291C74.784 24.0291 75.1056 23.946 75.3857 23.7798C75.6688 23.6105 75.8904 23.3782 76.0504 23.0827C76.2135 22.7872 76.2951 22.4502 76.2951 22.0717C76.2951 21.687 76.212 21.3438 76.0458 21.0422C75.8796 20.7406 75.6503 20.5036 75.358 20.3313C75.0687 20.1589 74.7363 20.0712 74.3608 20.0681C74.0746 20.0681 73.7868 20.1174 73.4975 20.2159C73.2082 20.3143 72.9743 20.4436 72.7958 20.6036L71.4893 20.4098L72.0202 15.6456H77.2184V16.8689H73.2067L72.9066 19.5142H72.962C73.1467 19.3357 73.3913 19.1864 73.696 19.0664C74.0038 18.9463 74.3331 18.8863 74.6839 18.8863C75.2595 18.8863 75.7719 19.0233 76.2212 19.2972C76.6737 19.5711 77.0291 19.945 77.2876 20.419C77.5492 20.8899 77.6785 21.4315 77.6754 22.044C77.6785 22.6564 77.54 23.2027 77.2599 23.6828C76.983 24.163 76.5982 24.5415 76.1058 24.8185C75.6165 25.0924 75.0548 25.2294 74.4208 25.2294ZM83.6531 25.2571C82.9237 25.254 82.3005 25.0616 81.7835 24.68C81.2664 24.2984 80.8709 23.7429 80.597 23.0134C80.3231 22.284 80.1862 21.4054 80.1862 20.3774C80.1862 19.3526 80.3231 18.477 80.597 17.7507C80.874 17.0243 81.271 16.4704 81.7881 16.0887C82.3082 15.7071 82.9299 15.5163 83.6531 15.5163C84.3764 15.5163 84.9965 15.7086 85.5136 16.0933C86.0306 16.475 86.4261 17.029 86.7 17.7553C86.977 18.4785 87.1155 19.3526 87.1155 20.3774C87.1155 21.4085 86.9785 22.2887 86.7046 23.0181C86.4307 23.7444 86.0352 24.2999 85.5182 24.6846C85.0012 25.0662 84.3795 25.2571 83.6531 25.2571ZM83.6531 24.0245C84.2933 24.0245 84.7934 23.7121 85.1535 23.0873C85.5167 22.4626 85.6982 21.5593 85.6982 20.3774C85.6982 19.5926 85.6151 18.9294 85.449 18.3877C85.2858 17.843 85.0504 17.4306 84.7426 17.1505C84.4379 16.8674 84.0748 16.7258 83.6531 16.7258C83.0161 16.7258 82.516 17.0397 82.1528 17.6676C81.7896 18.2954 81.6065 19.1987 81.6034 20.3774C81.6034 21.1653 81.685 21.8316 81.8481 22.3764C82.0143 22.918 82.2497 23.3289 82.5544 23.609C82.8591 23.886 83.2253 24.0245 83.6531 24.0245Z" fill="#E85340"/>
</svg>
