<svg width="32" height="32" viewBox="0 0 32 32" fill="none" xmlns="http://www.w3.org/2000/svg">
<path d="M0 1C0 0.447715 0.447715 0 1 0H31C31.5523 0 32 0.447715 32 1V31C32 31.5523 31.5523 32 31 32H1C0.447715 32 0 31.5523 0 31V1Z" fill="#E1E1E1"/>
<path fill-rule="evenodd" clip-rule="evenodd" d="M10.5904 8.71331C10.7488 8.48709 11.0605 8.43207 11.2868 8.59043L21.2634 15.574C21.5591 15.7811 21.5591 16.219 21.2634 16.426L11.2868 23.4097C11.0605 23.568 10.7488 23.513 10.5904 23.2868C10.4321 23.0605 10.4871 22.7488 10.7133 22.5904L20.1281 16L10.7133 9.40966C10.4871 9.2513 10.4321 8.93954 10.5904 8.71331Z" fill="#FFF"/>
</svg>
