<svg width="148" height="41" viewBox="0 0 148 41" fill="none" xmlns="http://www.w3.org/2000/svg">
<path d="M0 1.1001C0 0.547812 0.447715 0.100098 1 0.100098H146.5C147.052 0.100098 147.5 0.547813 147.5 1.1001V39.1001C147.5 39.6524 147.052 40.1001 146.5 40.1001H1C0.447717 40.1001 0 39.6524 0 39.1001V1.1001Z" fill="#F9D4CF"/>
<path d="M71.7075 18.9602L71.269 19.9112H65.1983L65.5445 18.9602H71.7075ZM70.8812 20.8345L70.4334 21.7947H65.1983L65.5445 20.8345H70.8812ZM72.8339 16.4534L72.2892 17.6214C72.1168 17.4737 71.9291 17.3398 71.726 17.2198C71.5229 17.0997 71.3043 17.0043 71.0704 16.9335C70.8365 16.8597 70.5857 16.8228 70.318 16.8228C69.8255 16.8228 69.387 16.9551 69.0023 17.2198C68.6176 17.4844 68.3144 17.8815 68.0928 18.4108C67.8743 18.9371 67.765 19.5926 67.765 20.3774C67.765 21.1622 67.8743 21.8178 68.0928 22.3441C68.3144 22.8703 68.6176 23.2658 69.0023 23.5305C69.387 23.7921 69.8255 23.9229 70.318 23.9229C70.5888 23.9229 70.8412 23.8875 71.0751 23.8167C71.312 23.7459 71.5275 23.6536 71.7214 23.5397C71.9183 23.4228 72.0953 23.2997 72.2523 23.1704L72.8109 24.3338C72.4846 24.6292 72.1061 24.8523 71.6752 25.0032C71.2443 25.154 70.7919 25.2294 70.318 25.2294C69.5455 25.2294 68.8607 25.0339 68.2636 24.6431C67.6696 24.2522 67.2034 23.6951 66.8648 22.9719C66.5263 22.2456 66.357 21.3808 66.357 20.3774C66.357 19.371 66.5263 18.5047 66.8648 17.7784C67.2034 17.052 67.6696 16.4934 68.2636 16.1026C68.8607 15.7117 69.5455 15.5163 70.318 15.5163C70.8104 15.5163 71.269 15.5978 71.6937 15.761C72.1184 15.921 72.4985 16.1518 72.8339 16.4534ZM78.6166 25.2294C78.038 25.2294 77.5179 25.1186 77.0562 24.897C76.5977 24.6723 76.2314 24.3645 75.9575 23.9737C75.6836 23.5828 75.5374 23.1366 75.519 22.6349H76.9039C76.9378 23.0411 77.1178 23.3751 77.444 23.6367C77.7703 23.8983 78.1611 24.0291 78.6166 24.0291C78.9798 24.0291 79.3014 23.946 79.5815 23.7798C79.8646 23.6105 80.0862 23.3782 80.2462 23.0827C80.4093 22.7872 80.4909 22.4502 80.4909 22.0717C80.4909 21.687 80.4078 21.3438 80.2416 21.0422C80.0754 20.7406 79.8461 20.5036 79.5538 20.3313C79.2645 20.1589 78.9321 20.0712 78.5566 20.0681C78.2704 20.0681 77.9826 20.1174 77.6933 20.2159C77.404 20.3143 77.1701 20.4436 76.9916 20.6036L75.6851 20.4098L76.216 15.6456H81.4142V16.8689H77.4025L77.1024 19.5142H77.1578C77.3425 19.3357 77.5871 19.1864 77.8918 19.0664C78.1996 18.9463 78.5289 18.8863 78.8797 18.8863C79.4553 18.8863 79.9677 19.0233 80.417 19.2972C80.8695 19.5711 81.2249 19.945 81.4834 20.419C81.745 20.8899 81.8743 21.4315 81.8712 22.044C81.8743 22.6564 81.7358 23.2027 81.4557 23.6828C81.1788 24.163 80.794 24.5415 80.3016 24.8185C79.8123 25.0924 79.2506 25.2294 78.6166 25.2294Z" fill="#E85340"/>
</svg>
