<svg width="148" height="41" viewBox="0 0 148 41" fill="none" xmlns="http://www.w3.org/2000/svg">
<path d="M0.5 1.1001C0.5 0.547812 0.947715 0.100098 1.5 0.100098H147C147.552 0.100098 148 0.547813 148 1.1001V39.1001C148 39.6524 147.552 40.1001 147 40.1001H1.5C0.947717 40.1001 0.5 39.6524 0.5 39.1001V1.1001Z" fill="#F9D4CF"/>
<path d="M68.4702 18.9602L68.0316 19.9112H61.961L62.3072 18.9602H68.4702ZM67.6439 20.8345L67.1961 21.7947H61.961L62.3072 20.8345H67.6439ZM69.5966 16.4534L69.0519 17.6214C68.8795 17.4737 68.6918 17.3398 68.4887 17.2198C68.2856 17.0997 68.067 17.0043 67.8331 16.9335C67.5992 16.8597 67.3484 16.8228 67.0807 16.8228C66.5882 16.8228 66.1497 16.9551 65.765 17.2198C65.3803 17.4844 65.0771 17.8815 64.8555 18.4108C64.637 18.9371 64.5277 19.5926 64.5277 20.3774C64.5277 21.1622 64.637 21.8178 64.8555 22.3441C65.0771 22.8703 65.3803 23.2658 65.765 23.5305C66.1497 23.7921 66.5882 23.9229 67.0807 23.9229C67.3515 23.9229 67.6039 23.8875 67.8378 23.8167C68.0747 23.7459 68.2902 23.6536 68.4841 23.5397C68.681 23.4228 68.858 23.2997 69.015 23.1704L69.5736 24.3338C69.2473 24.6292 68.8688 24.8523 68.4379 25.0032C68.007 25.154 67.5546 25.2294 67.0807 25.2294C66.3082 25.2294 65.6234 25.0339 65.0263 24.6431C64.4323 24.2522 63.9661 23.6951 63.6275 22.9719C63.289 22.2456 63.1197 21.3808 63.1197 20.3774C63.1197 19.371 63.289 18.5047 63.6275 17.7784C63.9661 17.052 64.4323 16.4934 65.0263 16.1026C65.6234 15.7117 66.3082 15.5163 67.0807 15.5163C67.5731 15.5163 68.0316 15.5978 68.4564 15.761C68.8811 15.921 69.2612 16.1518 69.5966 16.4534ZM75.8456 15.6456V25.1001H74.4145V17.0767H74.3591L72.097 18.5539V17.1875L74.456 15.6456H75.8456ZM82.6946 25.2571C81.9652 25.254 81.342 25.0616 80.825 24.68C80.3079 24.2984 79.9124 23.7429 79.6385 23.0134C79.3646 22.284 79.2277 21.4054 79.2277 20.3774C79.2277 19.3526 79.3646 18.477 79.6385 17.7507C79.9155 17.0243 80.3125 16.4704 80.8296 16.0887C81.3497 15.7071 81.9714 15.5163 82.6946 15.5163C83.4179 15.5163 84.038 15.7086 84.5551 16.0933C85.0721 16.475 85.4676 17.029 85.7415 17.7553C86.0185 18.4785 86.157 19.3526 86.157 20.3774C86.157 21.4085 86.02 22.2887 85.7461 23.0181C85.4722 23.7444 85.0767 24.2999 84.5597 24.6846C84.0427 25.0662 83.421 25.2571 82.6946 25.2571ZM82.6946 24.0245C83.3348 24.0245 83.8349 23.7121 84.195 23.0873C84.5582 22.4626 84.7397 21.5593 84.7397 20.3774C84.7397 19.5926 84.6566 18.9294 84.4905 18.3877C84.3273 17.843 84.0919 17.4306 83.7841 17.1505C83.4794 16.8674 83.1163 16.7258 82.6946 16.7258C82.0576 16.7258 81.5575 17.0397 81.1943 17.6676C80.8311 18.2954 80.648 19.1987 80.6449 20.3774C80.6449 21.1653 80.7265 21.8316 80.8896 22.3764C81.0558 22.918 81.2912 23.3289 81.5959 23.609C81.9006 23.886 82.2669 24.0245 82.6946 24.0245Z" fill="#E85340"/>
</svg>
