<svg width="602" height="41" viewBox="0 0 602 41" fill="none" xmlns="http://www.w3.org/2000/svg">
<path d="M0 1.1001C0 0.547812 0.447715 0.100098 1 0.100098H601C601.552 0.100098 602 0.547813 602 1.1001V39.1001C602 39.6524 601.552 40.1001 601 40.1001H0.999995C0.447711 40.1001 0 39.6524 0 39.1001V1.1001Z" fill="#F9D4CF"/>
<path d="M273.95 25.1001H272.436L275.838 15.6456H277.486L280.889 25.1001H279.375L276.702 17.3629H276.628L273.95 25.1001ZM274.204 21.3977H279.116V22.598H274.204V21.3977ZM290.885 15.6456V25.1001H289.574L284.768 18.1661H284.681V25.1001H283.254V15.6456H284.574L289.385 22.5887H289.472V15.6456H290.885ZM297.027 25.1001H293.966V15.6456H297.124C298.05 15.6456 298.846 15.8348 299.51 16.2134C300.175 16.5889 300.684 17.129 301.038 17.8338C301.395 18.5355 301.574 19.3772 301.574 20.359C301.574 21.3438 301.394 22.1902 301.034 22.898C300.677 23.6059 300.16 24.1506 299.483 24.5323C298.806 24.9108 297.987 25.1001 297.027 25.1001ZM295.392 23.8536H296.948C297.668 23.8536 298.267 23.7182 298.744 23.4474C299.221 23.1735 299.578 22.778 299.815 22.261C300.052 21.7408 300.17 21.1068 300.17 20.359C300.17 19.6173 300.052 18.9879 299.815 18.4708C299.581 17.9538 299.232 17.5614 298.767 17.2936C298.302 17.0259 297.725 16.892 297.036 16.892H295.392V23.8536ZM304.348 25.1001V15.6456H310.275V16.8735H305.774V19.7542H309.966V20.9776H305.774V23.8721H310.331V25.1001H304.348ZM313.181 25.1001V15.6456H316.551C317.283 15.6456 317.891 15.7717 318.374 16.0241C318.861 16.2765 319.224 16.6258 319.464 17.072C319.704 17.5152 319.824 18.0277 319.824 18.6093C319.824 19.1879 319.702 19.6973 319.459 20.1374C319.219 20.5744 318.856 20.9145 318.37 21.1576C317.887 21.4008 317.279 21.5223 316.546 21.5223H313.993V20.2943H316.417C316.879 20.2943 317.254 20.2282 317.543 20.0958C317.836 19.9635 318.05 19.7711 318.185 19.5188C318.32 19.2664 318.388 18.9633 318.388 18.6093C318.388 18.2523 318.319 17.943 318.18 17.6814C318.045 17.4198 317.831 17.2198 317.539 17.0813C317.249 16.9397 316.869 16.8689 316.398 16.8689H314.607V25.1001H313.181ZM317.848 20.8345L320.184 25.1001H318.559L316.269 20.8345H317.848ZM327.716 18.1292C327.667 17.6922 327.464 17.3536 327.107 17.1136C326.75 16.8705 326.301 16.7489 325.759 16.7489C325.371 16.7489 325.036 16.8104 324.753 16.9335C324.469 17.0536 324.249 17.2198 324.092 17.4321C323.938 17.6414 323.862 17.8799 323.862 18.1477C323.862 18.3724 323.914 18.5662 324.019 18.7294C324.126 18.8925 324.266 19.0294 324.439 19.1402C324.614 19.2479 324.802 19.3387 325.002 19.4126C325.202 19.4834 325.394 19.5419 325.579 19.588L326.502 19.8281C326.804 19.9019 327.113 20.002 327.43 20.1282C327.747 20.2543 328.041 20.4205 328.312 20.6267C328.583 20.8329 328.801 21.0884 328.967 21.3931C329.137 21.6978 329.221 22.0625 329.221 22.4872C329.221 23.0227 329.083 23.4982 328.806 23.9137C328.532 24.3291 328.133 24.6569 327.61 24.897C327.09 25.137 326.461 25.2571 325.722 25.2571C325.014 25.2571 324.402 25.1447 323.885 24.9201C323.368 24.6954 322.963 24.3768 322.67 23.9644C322.378 23.549 322.217 23.0565 322.186 22.4872H323.617C323.645 22.8288 323.755 23.1135 323.949 23.3412C324.146 23.5659 324.397 23.7336 324.702 23.8444C325.01 23.9521 325.347 24.006 325.713 24.006C326.116 24.006 326.474 23.9429 326.788 23.8167C327.105 23.6875 327.355 23.509 327.536 23.2812C327.718 23.0504 327.809 22.7811 327.809 22.4733C327.809 22.1933 327.729 21.964 327.569 21.7855C327.412 21.607 327.198 21.4592 326.927 21.3423C326.659 21.2253 326.356 21.1222 326.017 21.033L324.9 20.7283C324.143 20.5221 323.543 20.2189 323.1 19.8188C322.66 19.4188 322.44 18.8894 322.44 18.2308C322.44 17.686 322.587 17.2105 322.883 16.8043C323.178 16.398 323.578 16.0826 324.083 15.8579C324.588 15.6302 325.157 15.5163 325.791 15.5163C326.431 15.5163 326.996 15.6286 327.485 15.8533C327.978 16.078 328.366 16.3873 328.649 16.7812C328.932 17.1721 329.08 17.6214 329.092 18.1292H327.716Z" fill="#E85340"/>
</svg>
