<svg width="148" height="41" viewBox="0 0 148 41" fill="none" xmlns="http://www.w3.org/2000/svg">
<path d="M0 1.1001C0 0.547812 0.447715 0.100098 1 0.100098H146.5C147.052 0.100098 147.5 0.547813 147.5 1.1001V39.1001C147.5 39.6524 147.052 40.1001 146.5 40.1001H1C0.447717 40.1001 0 39.6524 0 39.1001V1.1001Z" fill="#F9D4CF"/>
<path d="M67.0562 18.9602L66.6176 19.9112H60.5469L60.8932 18.9602H67.0562ZM66.2298 20.8345L65.782 21.7947H60.5469L60.8932 20.8345H66.2298ZM68.1826 16.4534L67.6378 17.6214C67.4655 17.4737 67.2777 17.3398 67.0746 17.2198C66.8715 17.0997 66.653 17.0043 66.4191 16.9335C66.1852 16.8597 65.9343 16.8228 65.6666 16.8228C65.1742 16.8228 64.7356 16.9551 64.3509 17.2198C63.9662 17.4844 63.663 17.8815 63.4415 18.4108C63.2229 18.9371 63.1137 19.5926 63.1137 20.3774C63.1137 21.1622 63.2229 21.8178 63.4415 22.3441C63.663 22.8703 63.9662 23.2658 64.3509 23.5305C64.7356 23.7921 65.1742 23.9229 65.6666 23.9229C65.9374 23.9229 66.1898 23.8875 66.4237 23.8167C66.6607 23.7459 66.8761 23.6536 67.07 23.5397C67.267 23.4228 67.4439 23.2997 67.6009 23.1704L68.1595 24.3338C67.8333 24.6292 67.4547 24.8523 67.0238 25.0032C66.593 25.154 66.1406 25.2294 65.6666 25.2294C64.8941 25.2294 64.2093 25.0339 63.6123 24.6431C63.0183 24.2522 62.552 23.6951 62.2135 22.9719C61.8749 22.2456 61.7057 21.3808 61.7057 20.3774C61.7057 19.371 61.8749 18.5047 62.2135 17.7784C62.552 17.052 63.0183 16.4934 63.6123 16.1026C64.2093 15.7117 64.8941 15.5163 65.6666 15.5163C66.159 15.5163 66.6176 15.5978 67.0423 15.761C67.467 15.921 67.8471 16.1518 68.1826 16.4534ZM70.8445 25.1001V24.066L74.0437 20.7514C74.3853 20.3913 74.6669 20.0758 74.8885 19.805C75.1132 19.5311 75.2809 19.271 75.3917 19.0248C75.5025 18.7786 75.5579 18.517 75.5579 18.24C75.5579 17.9261 75.4841 17.6553 75.3363 17.4275C75.1886 17.1967 74.987 17.0197 74.7316 16.8966C74.4761 16.7704 74.1884 16.7073 73.8683 16.7073C73.5298 16.7073 73.2343 16.7766 72.9819 16.9151C72.7296 17.0536 72.5357 17.249 72.4003 17.5014C72.2648 17.7537 72.1971 18.0492 72.1971 18.3877H70.8353C70.8353 17.8122 70.9676 17.309 71.2323 16.8782C71.497 16.4473 71.8601 16.1134 72.3218 15.8764C72.7834 15.6363 73.3082 15.5163 73.896 15.5163C74.49 15.5163 75.0132 15.6348 75.4656 15.8718C75.9211 16.1057 76.2766 16.4257 76.532 16.832C76.7874 17.2352 76.9152 17.6907 76.9152 18.1985C76.9152 18.5493 76.849 18.8925 76.7167 19.2279C76.5874 19.5634 76.3612 19.9373 76.038 20.3497C75.7149 20.7591 75.2656 21.2561 74.69 21.8409L72.8111 23.8075V23.8767H77.0675V25.1001H70.8445ZM83.1087 25.2571C82.3793 25.254 81.7561 25.0616 81.239 24.68C80.722 24.2984 80.3265 23.7429 80.0526 23.0134C79.7787 22.284 79.6417 21.4054 79.6417 20.3774C79.6417 19.3526 79.7787 18.477 80.0526 17.7507C80.3296 17.0243 80.7266 16.4704 81.2437 16.0887C81.7638 15.7071 82.3855 15.5163 83.1087 15.5163C83.832 15.5163 84.4521 15.7086 84.9691 16.0933C85.4862 16.475 85.8817 17.029 86.1556 17.7553C86.4326 18.4785 86.5711 19.3526 86.5711 20.3774C86.5711 21.4085 86.4341 22.2887 86.1602 23.0181C85.8863 23.7444 85.4908 24.2999 84.9738 24.6846C84.4567 25.0662 83.835 25.2571 83.1087 25.2571ZM83.1087 24.0245C83.7489 24.0245 84.249 23.7121 84.6091 23.0873C84.9722 22.4626 85.1538 21.5593 85.1538 20.3774C85.1538 19.5926 85.0707 18.9294 84.9045 18.3877C84.7414 17.843 84.506 17.4306 84.1982 17.1505C83.8935 16.8674 83.5303 16.7258 83.1087 16.7258C82.4716 16.7258 81.9715 17.0397 81.6084 17.6676C81.2452 18.2954 81.0621 19.1987 81.059 20.3774C81.059 21.1653 81.1406 21.8316 81.3037 22.3764C81.4699 22.918 81.7053 23.3289 82.01 23.609C82.3147 23.886 82.6809 24.0245 83.1087 24.0245Z" fill="#E85340"/>
</svg>
