<svg width="138" height="33" viewBox="0 0 138 33" fill="none" xmlns="http://www.w3.org/2000/svg">
<path d="M0 1.1001C0 0.547813 0.447715 0.100098 1 0.100098H137C137.552 0.100098 138 0.547813 138 1.1001V31.1001C138 31.6524 137.552 32.1001 137 32.1001H1C0.447715 32.1001 0 31.6524 0 31.1001V1.1001Z" fill="#E1E1E1"/>
<path d="M13.1891 21.1001V11.6456H16.6515C17.3224 11.6456 17.8779 11.7563 18.318 11.9779C18.7581 12.1965 19.0874 12.4934 19.3059 12.8689C19.5244 13.2413 19.6337 13.6614 19.6337 14.1292C19.6337 14.5232 19.5614 14.8555 19.4167 15.1264C19.2721 15.3941 19.0782 15.6096 18.835 15.7727C18.595 15.9327 18.3303 16.0497 18.041 16.1235V16.2159C18.3549 16.2313 18.6612 16.3328 18.9597 16.5206C19.2613 16.7052 19.5106 16.9684 19.7076 17.31C19.9045 17.6516 20.003 18.0671 20.003 18.5564C20.003 19.0396 19.8891 19.4736 19.6614 19.8583C19.4367 20.2399 19.089 20.543 18.6181 20.7677C18.1472 20.9893 17.5455 21.1001 16.813 21.1001H13.1891ZM14.6156 19.8767H16.6745C17.3578 19.8767 17.8471 19.7444 18.1426 19.4797C18.438 19.215 18.5858 18.8842 18.5858 18.4872C18.5858 18.1886 18.5104 17.9147 18.3596 17.6654C18.2087 17.4161 17.9933 17.2176 17.7132 17.0699C17.4363 16.9222 17.1069 16.8483 16.7253 16.8483H14.6156V19.8767ZM14.6156 15.7358H16.5268C16.8469 15.7358 17.1346 15.6742 17.3901 15.5511C17.6486 15.428 17.8533 15.2556 18.0041 15.034C18.158 14.8094 18.2349 14.5447 18.2349 14.24C18.2349 13.8492 18.098 13.5214 17.824 13.2567C17.5501 12.992 17.13 12.8597 16.5637 12.8597H14.6156V15.7358ZM22.695 21.1001V11.6456H28.6225V12.8735H24.1214V15.7542H28.3132V16.9776H24.1214V19.8721H28.6779V21.1001H22.695ZM31.528 21.1001V11.6456H32.9545V16.1605H33.0699L37.0354 11.6456H38.8312L35.018 15.9019L38.8451 21.1001H37.1278L34.0716 16.876L32.9545 18.1594V21.1001H31.528ZM42.5873 11.6456V21.1001H41.1608V11.6456H42.5873ZM49.3394 11.6456H50.7613V18.3487C50.7613 18.955 50.6412 19.4736 50.4012 19.9044C50.1642 20.3353 49.8303 20.6646 49.3994 20.8924C48.9685 21.117 48.4638 21.2294 47.8852 21.2294C47.3528 21.2294 46.8742 21.1324 46.4495 20.9385C46.0278 20.7446 45.6939 20.463 45.4477 20.0937C45.2046 19.7213 45.083 19.2689 45.083 18.7365H46.5003C46.5003 18.9981 46.5603 19.2243 46.6803 19.4151C46.8034 19.6059 46.9711 19.7552 47.1835 19.8629C47.3989 19.9675 47.6452 20.0198 47.9221 20.0198C48.2238 20.0198 48.4792 19.9568 48.6885 19.8306C48.9008 19.7013 49.0624 19.512 49.1732 19.2627C49.284 19.0134 49.3394 18.7088 49.3394 18.3487V11.6456ZM53.8375 21.1001V11.6456H55.264V16.1605H55.3794L59.345 11.6456H61.1408L57.3276 15.9019L61.1547 21.1001H59.4373L56.3812 16.876L55.264 18.1594V21.1001H53.8375ZM67.9108 21.1001V11.6456H71.2808C72.0164 11.6456 72.6257 11.7794 73.1089 12.0472C73.5921 12.3149 73.9537 12.6812 74.1938 13.1459C74.4339 13.6076 74.5539 14.1277 74.5539 14.7063C74.5539 15.288 74.4323 15.8112 74.1892 16.2759C73.9491 16.7375 73.586 17.1038 73.0997 17.3746C72.6165 17.6424 72.0087 17.7762 71.2762 17.7762H68.9587V16.5667H71.1469C71.6117 16.5667 71.9887 16.4867 72.278 16.3267C72.5673 16.1635 72.7796 15.942 72.915 15.6619C73.0505 15.3818 73.1182 15.0633 73.1182 14.7063C73.1182 14.3493 73.0505 14.0323 72.915 13.7553C72.7796 13.4783 72.5657 13.2613 72.2733 13.1044C71.984 12.9474 71.6024 12.8689 71.1285 12.8689H69.3373V21.1001H67.9108ZM77.2262 21.1001V11.6456H80.5962C81.3287 11.6456 81.9366 11.7717 82.4197 12.0241C82.906 12.2765 83.2692 12.6258 83.5092 13.072C83.7493 13.5152 83.8693 14.0277 83.8693 14.6093C83.8693 15.1879 83.7478 15.6973 83.5046 16.1374C83.2646 16.5744 82.9014 16.9145 82.4151 17.1576C81.9319 17.4008 81.3241 17.5223 80.5916 17.5223H78.0387V16.2943H80.4624C80.924 16.2943 81.2995 16.2282 81.5888 16.0958C81.8812 15.9635 82.0951 15.7711 82.2305 15.5188C82.3659 15.2664 82.4336 14.9633 82.4336 14.6093C82.4336 14.2523 82.3643 13.943 82.2259 13.6814C82.0904 13.4198 81.8765 13.2198 81.5842 13.0813C81.2949 12.9397 80.9148 12.8689 80.4439 12.8689H78.6527V21.1001H77.2262ZM81.8935 16.8345L84.2294 21.1001H82.6044L80.3146 16.8345H81.8935ZM94.8178 16.3728C94.8178 17.3823 94.6332 18.2502 94.2638 18.9765C93.8945 19.6998 93.3883 20.2568 92.745 20.6477C92.1049 21.0355 91.377 21.2294 90.5614 21.2294C89.7428 21.2294 89.0118 21.0355 88.3686 20.6477C87.7285 20.2568 87.2237 19.6982 86.8544 18.9719C86.4851 18.2456 86.3004 17.3792 86.3004 16.3728C86.3004 15.3634 86.4851 14.497 86.8544 13.7737C87.2237 13.0474 87.7285 12.4904 88.3686 12.1026C89.0118 11.7117 89.7428 11.5163 90.5614 11.5163C91.377 11.5163 92.1049 11.7117 92.745 12.1026C93.3883 12.4904 93.8945 13.0474 94.2638 13.7737C94.6332 14.497 94.8178 15.3634 94.8178 16.3728ZM93.4052 16.3728C93.4052 15.6034 93.2805 14.9556 93.0312 14.4293C92.785 13.8999 92.4465 13.4998 92.0156 13.229C91.5878 12.9551 91.1031 12.8181 90.5614 12.8181C90.0167 12.8181 89.5304 12.9551 89.1026 13.229C88.6748 13.4998 88.3363 13.8999 88.087 14.4293C87.8408 14.9556 87.7177 15.6034 87.7177 16.3728C87.7177 17.1422 87.8408 17.7916 88.087 18.321C88.3363 18.8473 88.6748 19.2474 89.1026 19.5213C89.5304 19.7921 90.0167 19.9275 90.5614 19.9275C91.1031 19.9275 91.5878 19.7921 92.0156 19.5213C92.4465 19.2474 92.785 18.8473 93.0312 18.321C93.2805 17.7916 93.4052 17.1422 93.4052 16.3728ZM97.5963 21.1001V11.6456H103.459V12.8735H99.0228V15.7542H103.039V16.9776H99.0228V21.1001H97.5963ZM107.64 11.6456V21.1001H106.214V11.6456H107.64ZM110.717 21.1001V11.6456H116.645V12.8735H112.144V15.7542H116.336V16.9776H112.144V19.8721H116.7V21.1001H110.717ZM119.55 21.1001V11.6456H120.977V19.8721H125.261V21.1001H119.55Z" fill="#7B7B7A"/>
</svg>
